<svg width="89px" height="89px" viewBox="0 0 89 89" version="1.1" xmlns="http://www.w3.org/2000/svg" xmlns:xlink="http://www.w3.org/1999/xlink">
    <g stroke="none" stroke-width="1" fill="none" fill-rule="evenodd">
        <g transform="translate(-357.000000, -173.000000)" fill="#FFFFFF" fill-rule="nonzero">
            <g id="noun_Computer_80531" transform="translate(357.000000, 173.000000)">
                <g id="Group">
                    <path d="M73.649,7.276 L73.712,7.225 L73.649,7.146 L73.649,6.231 L36.34,4.804 L36.34,37.617 L73.645,44.085 L73.649,7.276 Z M71.809,7.305 L70.31,8.529 L70.337,8.562 L41.028,7.291 L38.79,6.041 L71.809,7.305 Z M70.414,9.708 L70.414,40.342 L40.717,35.602 L40.717,8.421 L70.414,9.708 Z M37.481,5.991 L37.588,5.995 L37.481,6.187 L37.481,5.991 Z M37.481,6.617 L39.575,7.787 L39.575,35.674 L37.481,36.352 L37.481,6.617 Z M39.284,36.968 L40.191,36.675 L70.69,41.542 L71.587,42.568 L39.284,36.968 Z M72.503,41.881 L71.556,40.798 L71.556,8.986 L72.508,8.208 L72.503,41.881 Z" id="Shape"></path>
                    <path d="M81.476,46.333 L83.81,44.192 L83.756,40.221 L87.945,36.888 L87.945,16.038 L83.805,13.373 L83.805,7.727 L81.916,5.955 L81.959,4.638 L77.901,1.792 L33.699,0.681 L33.699,41.667 L39.589,42.713 L39.559,44.095 L25.134,51.789 L25.134,61.555 L15.915,59.528 L0.732,73.586 L0.73,73.586 L0.73,73.588 L0.661,73.652 L0.731,73.669 L0.767,76.699 L51.406,88.98 L62.494,77.478 L62.494,73.773 L73.549,76.325 L88.421,60.396 L88.421,47.506 L81.476,46.333 Z M83.753,14.698 L86.804,16.661 L86.804,36.338 L83.753,38.766 L83.753,14.698 Z M78.286,3.458 L80.798,5.219 L80.757,6.435 L82.663,8.223 L82.663,9.783 L82.611,9.783 L82.611,39.612 L82.689,39.612 L82.607,39.676 L82.66,43.697 L78.285,47.709 L78.285,3.458 L78.286,3.458 Z M34.841,40.71 L34.841,1.852 L77.144,2.916 L77.144,48.325 L68.229,46.734 L68.133,48.785 L40.711,43.636 L40.752,41.759 L34.841,40.71 Z M42.383,46.457 L42.432,45.123 L66.252,49.595 L66.252,50.933 L42.383,46.457 Z M61.737,51.247 L61.733,51.416 C60.929,51.637 60.016,51.747 59.014,51.747 C55.224,51.747 51.144,50.159 49.943,49.654 L49.973,49.042 L53.286,49.663 C54.907,50.17 56.841,50.617 58.765,50.69 L61.737,51.247 Z M48.84,48.829 L48.766,50.379 L49.117,50.54 C49.204,50.58 50.117,50.996 51.493,51.465 L42.025,49.722 L45.018,48.114 L48.84,48.829 Z M63.259,54.794 L63.259,56.517 L39.891,51.898 L39.891,50.49 L63.259,54.794 Z M59.205,52.886 C60.415,52.87 61.515,52.703 62.474,52.385 L62.856,52.259 L62.875,51.462 L65.992,52.046 L63.693,53.714 L59.205,52.886 Z M64.4,54.61 L72.587,48.672 L74.055,48.935 L64.4,56.079 L64.4,54.61 Z M67.395,50.674 L67.395,49.809 L68.333,49.985 L67.395,50.674 Z M69.253,49.308 L69.309,48.086 L70.601,48.317 L69.253,49.308 Z M16.253,60.771 L60.608,70.526 L50.831,84.262 L3.013,73.032 L16.253,60.771 Z M61.353,77.018 L51.039,87.716 L1.898,75.798 L1.876,73.939 L51.317,85.549 L61.352,71.452 L61.352,77.018 L61.353,77.018 Z M72.434,74.895 L62.495,72.602 L62.495,69.848 L62.542,69.783 L26.276,61.806 L26.276,52.831 L72.434,62.234 L72.434,74.895 Z M72.469,61.076 L27.373,51.889 L40.678,44.791 L41.296,44.907 L41.206,47.397 L43.23,47.777 L38.762,50.179 L38.749,50.179 L38.749,50.186 L38.62,50.255 L38.749,50.278 L38.749,52.836 L63.966,57.818 L75.6,49.21 L77.892,49.619 L80.409,47.311 L86.59,48.355 L72.469,61.076 Z M87.279,59.947 L73.575,74.624 L73.575,61.617 L87.28,49.273 L87.28,59.947 L87.279,59.947 Z" id="Shape"></path>
                    <path d="M71.672,63.987 L51.495,59.63 L51.495,66.082 L71.672,70.44 L71.672,63.987 Z M54.065,61.353 L69.102,64.601 L69.102,66.509 L54.065,63.28 L54.065,61.353 Z M70.53,69.025 L52.638,65.16 L52.638,61.045 L52.924,61.107 L52.924,64.204 L70.244,67.921 L70.244,64.846 L70.53,64.908 L70.53,69.025 Z" id="Shape"></path>
                    <path d="M41.685,68.823 L41.707,68.79 L41.685,68.786 L41.685,68.774 L41.635,68.774 L15.116,62.874 L6.762,70.907 L6.793,70.915 L6.793,72.623 L36.126,79.445 L41.685,71.51 L41.685,68.823 Z M36.706,68.848 L37.949,69.124 L37.476,69.759 L36.232,69.485 L36.706,68.848 Z M15.434,67.059 L16.271,66.248 L17.562,66.532 L16.75,67.348 L15.434,67.059 Z M15.796,68.308 L14.897,69.212 L13.54,68.897 L14.453,68.012 L15.796,68.308 Z M17.118,68.599 L18.408,68.883 L17.561,69.829 L16.206,69.516 L17.118,68.599 Z M18.072,67.64 L18.883,66.825 L20.026,67.077 L19.283,67.907 L18.072,67.64 Z M19.688,69.165 L21.042,69.463 L20.234,70.446 L18.832,70.123 L19.688,69.165 Z M20.562,68.188 L21.305,67.359 L22.544,67.633 L21.854,68.473 L20.562,68.188 Z M22.292,69.738 L23.354,69.971 L22.586,70.991 L21.473,70.733 L22.292,69.738 Z M23.106,68.748 L23.796,67.909 L24.752,68.12 L24.11,68.969 L23.106,68.748 Z M24.581,70.242 L25.806,70.512 L25.02,71.554 L23.804,71.273 L24.581,70.242 Z M25.337,69.239 L25.978,68.39 L27.201,68.661 L26.562,69.509 L25.337,69.239 Z M27.032,70.782 L28.175,71.033 L27.372,72.098 L26.238,71.836 L27.032,70.782 Z M27.789,69.779 L28.429,68.932 L29.572,69.184 L28.933,70.031 L27.789,69.779 Z M29.402,71.303 L30.599,71.567 L29.787,72.657 L28.59,72.381 L29.402,71.303 Z M30.158,70.301 L30.796,69.454 L31.978,69.715 L31.348,70.562 L30.158,70.301 Z M31.822,71.837 L32.884,72.07 L32.056,73.182 L31.001,72.938 L31.822,71.837 Z M32.571,70.832 L33.201,69.985 L34.262,70.219 L33.632,71.066 L32.571,70.832 Z M34.106,72.339 L35.35,72.614 L34.505,73.75 L33.27,73.463 L34.106,72.339 Z M34.855,71.335 L35.485,70.489 L36.727,70.763 L36.099,71.608 L34.855,71.335 Z M34.425,68.34 L35.485,68.576 L35.008,69.214 L33.947,68.98 L34.425,68.34 Z M32.039,67.809 L33.204,68.069 L32.726,68.711 L31.554,68.452 L32.039,67.809 Z M29.672,67.283 L30.813,67.536 L30.327,68.182 L29.184,67.929 L29.672,67.283 Z M27.224,66.738 L28.447,67.01 L27.958,67.658 L26.734,67.387 L27.224,66.738 Z M25.14,66.275 L25.999,66.466 L25.508,67.118 L24.61,66.919 L25.14,66.275 Z M22.751,65.744 L23.89,65.997 L23.358,66.643 L22.18,66.383 L22.751,65.744 Z M20.465,65.234 L21.474,65.458 L20.9,66.1 L19.838,65.866 L20.465,65.234 Z M17.904,64.665 L19.146,64.941 L18.516,65.574 L17.253,65.295 L17.904,64.665 Z M15.467,64.123 L16.569,64.368 L15.917,65 L14.809,64.756 L15.467,64.123 Z M13.819,65.706 L14.935,65.952 L14.098,66.764 L12.976,66.517 L13.819,65.706 Z M11.985,67.469 L13.115,67.717 L12.214,68.591 L11.089,68.33 L11.985,67.469 Z M9.942,72.184 L7.935,71.717 L7.935,71.174 L9.942,71.63 L9.942,72.184 Z M9.081,70.262 L10.107,69.275 L11.239,69.537 L10.224,70.521 L9.081,70.262 Z M12.684,72.82 L11.085,72.448 L11.085,71.887 L12.684,72.25 L12.684,72.82 Z M11.553,70.824 L12.562,69.844 L13.949,70.164 L12.973,71.146 L11.553,70.824 Z M15.634,73.506 L13.824,73.086 L13.824,72.509 L15.634,72.92 L15.634,73.506 Z M15.805,71.788 L14.287,71.444 L15.259,70.468 L16.692,70.801 L15.805,71.788 Z M28.216,76.434 L16.774,73.773 L16.774,73.18 L28.216,75.775 L28.216,76.434 Z M28.357,74.636 L17.08,72.077 L17.962,71.094 L29.044,73.659 L28.331,74.616 L28.357,74.636 Z M30.504,76.965 L29.358,76.699 L29.358,76.033 L30.504,76.294 L30.504,76.965 Z M30.643,75.081 L30.505,75.081 L30.505,75.123 L29.539,74.904 L30.258,73.94 L31.312,74.184 L30.643,75.081 Z M32.979,77.541 L31.647,77.231 L31.647,76.553 L32.979,76.854 L32.979,77.541 Z M33.053,75.701 L31.814,75.42 L32.526,74.463 L33.762,74.749 L33.053,75.701 Z M35.143,78.044 L34.121,77.806 L34.121,77.114 L35.143,77.347 L35.143,78.044 Z M35.166,76.114 L35.143,76.114 L35.143,76.145 L35.125,76.172 L34.27,75.978 L34.976,75.032 L35.793,75.221 L35.166,76.114 Z M36.545,76.856 L36.285,77.227 L36.285,76.506 L36.545,76.136 L36.545,76.856 Z M36.502,74.211 L35.72,74.03 L36.574,72.882 L37.32,73.047 L36.502,74.211 Z M37.812,75.047 L37.688,75.226 L37.688,74.51 L37.812,74.332 L37.812,75.047 Z M38.033,72.034 L37.323,71.878 L37.951,71.034 L38.63,71.184 L38.033,72.034 Z M39.176,73.102 L38.954,73.417 L38.954,72.708 L39.176,72.392 L39.176,73.102 Z M39.341,70.17 L38.699,70.029 L39.17,69.395 L39.789,69.533 L39.341,70.17 Z M40.543,71.151 L40.318,71.47 L40.318,70.767 L40.543,70.447 L40.543,71.151 Z" id="Shape"></path>
                    <path d="M55.773,71.773 L55.698,71.773 L55.733,71.721 L44.707,69.372 L38.812,78.022 L38.806,78.022 L38.806,78.031 L38.802,78.037 L38.806,78.038 L38.821,79.892 L44.16,81.086 L44.16,81.094 L44.199,81.094 L50.458,82.494 L55.773,74.735 L55.773,71.773 L55.773,71.773 Z M50.2,71.709 L51.284,71.94 L50.627,72.925 L49.543,72.693 L50.2,71.709 Z M45.805,74 L46.355,73.177 L47.66,73.457 L47.111,74.278 L45.805,74 Z M46.428,75.3 L45.86,76.152 L44.554,75.872 L45.122,75.021 L46.428,75.3 Z M47.63,75.558 L48.713,75.791 L48.145,76.642 L47.061,76.411 L47.63,75.558 Z M48.312,74.537 L48.861,73.715 L49.945,73.947 L49.396,74.769 L48.312,74.537 Z M47.69,71.175 L48.997,71.453 L48.341,72.436 L47.036,72.156 L47.69,71.175 Z M45.22,70.648 L46.49,70.919 L45.836,71.898 L44.555,71.624 L45.22,70.648 Z M43.859,72.643 L45.153,72.921 L44.603,73.742 L43.3,73.463 L43.859,72.643 Z M42.625,74.454 L42.619,74.485 L43.921,74.764 L43.353,75.615 L42.027,75.331 L42.625,74.454 Z M41.639,79.352 L39.956,78.976 L39.95,78.294 L41.638,78.671 L41.638,79.352 L41.639,79.352 Z M42.034,77.59 L40.693,77.29 L41.333,76.35 L42.671,76.637 L42.034,77.59 Z M44.16,79.916 L42.781,79.607 L42.781,78.927 L44.16,79.236 L44.16,79.916 Z M44.528,78.148 L43.229,77.857 L43.873,76.893 L45.178,77.173 L44.528,78.148 Z M46.698,80.483 L45.303,80.171 L45.303,79.492 L46.698,79.804 L46.698,80.483 Z M46.799,78.657 L45.722,78.416 L46.379,77.432 L47.462,77.664 L46.799,78.657 Z M49.391,81.086 L47.84,80.738 L47.84,80.06 L49.391,80.408 L49.391,81.086 Z M49.347,79.228 L47.994,78.924 L49.914,76.049 L51.275,76.341 L49.347,79.228 Z M51.66,78.722 L50.534,80.365 L50.534,79.507 L51.66,77.821 L51.66,78.722 Z M51.957,75.317 L50.597,75.025 L51.147,74.203 L52.507,74.495 L51.957,75.317 Z M53.152,76.541 L52.802,77.054 L52.802,76.11 L53.152,75.584 L53.152,76.541 Z M53.189,73.474 L51.828,73.182 L52.487,72.196 L53.848,72.486 L53.189,73.474 Z M54.631,74.382 L54.294,74.874 L54.294,73.874 L54.631,73.37 L54.631,74.382 Z" id="Shape"></path>
                </g>
            </g>
        </g>
    </g>
</svg>